<?xml version="1.0" encoding="UTF-8" standalone="no"?>
<!-- Created with Inkscape (http://www.inkscape.org/) -->

<svg
   width="171.39975mm"
   height="204.72318mm"
   viewBox="0 0 171.39975 204.72318"
   version="1.1"
   id="svg1"
   xmlns="http://www.w3.org/2000/svg"
   xmlns:svg="http://www.w3.org/2000/svg">
  <defs
     id="defs1" />
  <g
     id="layer1"
     transform="translate(-20.696,-36.305855)">
    <path
       d="m 62.923494,240.65092 c -0.567537,-0.20224 -1.141095,-0.52445 -1.274575,-0.71598 -1.007504,-1.44577 -1.000834,-1.28236 -1.000834,-24.51608 0,-12.35575 0.07526,-22.84132 0.167254,-23.30128 0.09199,-0.45995 0.496945,-1.18919 0.899903,-1.62057 0.597477,-0.6396 0.947523,-0.7843 1.897285,-0.7843 0.949018,0 1.578406,0.25972 3.399575,1.40287 1.229214,0.7716 4.913844,3.04731 8.188064,5.05714 3.27422,2.00983 6.54844,4.03677 7.27604,4.50429 2.2925,1.47307 6.736,4.23387 10.84459,6.73788 l 3.96543,2.41673 1.38311,-1.43933 c 3.275084,-3.40828 8.341194,-4.36893 12.476854,-2.36585 0.77984,0.37769 2.12506,1.38951 2.98939,2.24851 l 1.5715,1.56175 c 10.77559,-6.41503 27.86848,-17.78087 31.49511,-19.66831 1.52751,-0.79498 2.56878,-0.78422 3.49746,0.0362 1.24419,1.09907 1.21117,0.43481 1.24194,24.98433 0.0315,25.14738 0.0873,24.13897 -1.39253,25.17547 -1.08619,0.76079 -2.13851,0.50501 -5.37656,-1.30685 -10.021,-5.37996 -19.90126,-11.0213 -29.86123,-16.51633 l -1.48037,1.41206 c -1.79061,1.70794 -3.19278,2.45623 -5.51972,2.94571 -3.36145,0.70705 -6.912,-0.46051 -9.512764,-3.12822 l -1.14029,-1.16964 c -7.43889,4.14213 -14.89777,8.24851 -22.32567,12.41038 -6.69997,3.76587 -10.875144,6.02676 -11.112496,6.0175 -0.145521,-0.006 -0.72893,-0.17579 -1.296466,-0.37804 z m 32.693562,-22.6278 c 0.10625,-0.0586 0.22061,-0.65066 0.22061,-1.44589 0,-1.23084 -0.11,-1.45468 -0.59531,-1.75721 l -28.971875,-18.05934 -0.33073,37.631 z m 51.433584,-21.59397 -28.52495,17.94656 c -1.21157,0.76226 -1.25677,0.83786 -1.25677,2.04544 v 1.25331 l 29.68996,16.47356 z m -38.8845,25.1731 c 1.41251,-0.41947 2.65257,-1.51821 3.41157,-3.02279 0.33993,-0.67386 0.42906,-1.3817 0.35605,-2.8276 -0.0821,-1.62518 -0.22164,-2.1046 -0.88685,-3.04631 -1.13313,-1.60414 -2.46994,-2.22305 -4.80155,-2.22305 -1.67922,0 -2.024,0.0905 -3.0224,0.79375 -1.56625,1.10315 -2.3582,2.69769 -2.3582,4.74805 0,3.3682 2.17818,5.68815 5.57437,5.93715 0.22825,0.0167 1.0054,-0.14492 1.72701,-0.3592 z m -3.46493,-21.02946 c -4.26661,-2.03178 -8.556594,-3.9234 -12.901604,-5.78424 -1.63537,-0.73422 -7.67637,-3.43347 -13.42444,-5.99832 C 61.333753,181.18612 62.521221,181.79856 58.95,178.7717 c -1.297747,-1.09993 -3.749646,-3.20158 -4.331216,-3.7028 -0.976749,-0.8237 -2.014032,-1.71717 -2.305074,-1.98551 -0.513218,-0.47317 -5.683782,-4.90515 -10.034505,-8.60114 -2.188142,-1.85886 -5.040839,-4.32556 -5.553422,-4.802 -0.15789,-0.14676 -1.178589,-1.03973 -2.26822,-1.98438 -6.137725,-5.32106 -13.280877,-11.76479 -13.504058,-12.18181 -0.141626,-0.26463 -0.257503,-0.84644 -0.257503,-1.29291 0,-0.76372 1.497486,-5.89169 4.099917,-14.03969 0.627462,-1.96453 1.747901,-5.59594 2.489867,-8.06979 0.741968,-2.47386 1.899089,-6.22433 2.571382,-8.33438 l 1.222349,-3.83646 -0.04761,-35.85992 c -0.03018,-22.733505 0.04667,-36.107885 0.209944,-36.537328 0.302186,-0.794811 1.611593,-1.416341 2.509237,-1.191046 0.739987,0.185725 2.79414,1.950913 12.609494,10.835685 4.001823,3.622416 8.883385,8.041278 10.847917,9.819696 1.964531,1.778418 5.987086,5.457015 8.939011,8.174656 l 5.367136,4.941168 34.584954,-0.02793 c 23.39255,-0.01889 34.75169,-0.117011 35.1002,-0.303196 0.47636,-0.25449 12.94843,-11.412842 23.57682,-21.093411 6.10525,-5.560791 12.81318,-11.462816 13.65469,-12.0142 0.7121,-0.466582 2.71303,-0.470596 2.75666,-0.0055 0.0122,0.129998 0.16102,0.571529 0.33072,0.981186 0.22986,0.554853 0.30856,9.9196 0.30856,36.71562 v 35.97079 l 2.13073,6.67605 c 1.1719,3.67183 2.89047,8.99776 3.81904,11.83542 4.55892,13.93183 4.73791,14.6587 3.9736,16.13671 -0.21747,0.42052 -3.10473,3.16999 -6.41615,6.10992 -3.31142,2.93994 -7.03279,6.25949 -8.26972,7.37679 -1.23692,1.1173 -4.69704,4.22575 -7.68913,6.90766 -2.9921,2.68192 -7.21882,6.4837 -9.39271,8.4484 -6.99443,6.32137 -7.92111,7.09881 -9.25557,7.76502 -1.52244,0.76005 -15.64234,7.01116 -22.21363,9.83433 -2.47385,1.06283 -5.98619,2.57942 -7.80521,3.37021 -8.50699,3.69829 -14.23438,6.01617 -14.82787,6.00085 -0.35764,-0.009 -0.88838,-0.11525 -1.17942,-0.23564 z m 9.39271,-8.73053 c 3.41974,-1.48897 7.11068,-3.1002 8.20208,-3.5805 1.09141,-0.48029 5.43719,-2.3669 9.6573,-4.19244 10.32969,-4.46846 15.26006,-6.63768 15.77048,-6.93857 0.23356,-0.13769 1.30512,-1.03952 2.38125,-2.00408 1.07613,-0.96455 3.48131,-3.09514 5.34484,-4.73462 l 3.38825,-2.98089 -0.87471,-0.9329 c -3.51914,-3.75326 -5.37725,-5.55174 -5.5961,-5.41648 -0.14033,0.0867 -0.18089,0.0375 -0.0901,-0.10932 0.0908,-0.14685 -0.14394,-0.5522 -0.52154,-0.90077 -2.38366,-2.20039 -12.33537,-12.83157 -12.5569,-13.41425 -0.6921,-1.82037 -0.98954,-1.47643 16.12652,-18.64741 8.82802,-8.85635 16.11048,-16.16949 16.18324,-16.25143 0.0728,-0.0819 -5.40411,-0.0725 -12.17083,0.021 -6.76672,0.0935 -17.56643,0.17304 -23.99936,0.17684 l -11.69624,0.007 -0.50037,0.71856 c -0.2752,0.3952 -0.86647,1.39364 -1.31394,2.21876 -1.0529,1.94151 -6.53926,11.44611 -8.70141,15.07437 -0.92305,1.54894 -1.67826,2.97471 -1.67826,3.16839 0,0.19368 2.02535,2.31965 4.50077,4.72438 6.1054,5.93103 6.19285,4.99983 -1.31753,14.02953 -2.3602,2.83765 -4.65823,5.54385 -5.10674,6.01377 l -0.81548,0.85439 6.61644,6.56115 c 3.63904,3.60863 6.82851,6.8848 7.0877,7.28037 0.6641,1.01355 0.36047,2.34288 -0.80024,3.50359 -0.74295,0.74294 -1.12595,0.92214 -1.9709,0.92214 -1.29229,0 -1.54829,-0.21541 -8.37843,-7.05 l -5.07921,-5.08251 -5.90472,5.91678 c -3.247604,3.25423 -6.214644,6.03461 -6.593424,6.17862 -1.8678,0.71014 -4.19866,-0.94931 -4.19866,-2.98922 0,-1.0361 0.17134,-1.23372 7.03955,-8.11923 5.378164,-5.39171 6.986094,-7.15192 6.813024,-7.45827 -0.12459,-0.22054 -2.49892,-3.17935 -5.276304,-6.57513 -2.77737,-3.39579 -5.18839,-6.43422 -5.35781,-6.75208 -0.52773,-0.99008 -0.37192,-2.53889 0.35591,-3.53786 0.36518,-0.50122 2.32971,-2.53545 4.36563,-4.52052 2.03592,-1.98507 3.701674,-3.7314 3.701674,-3.88074 0,-0.14934 -0.55148,-1.2041 -1.225524,-2.34391 -0.67403,-1.13981 -3.24886,-5.64426 -5.72184,-10.00988 -2.47299,-4.36563 -4.6354,-8.16163 -4.80538,-8.43557 -0.29868,-0.48136 -1.10973,-0.49911 -24.176006,-0.52916 -13.126825,-0.0171 -23.866985,-0.0294 -23.867022,-0.0274 -3.7e-5,0.002 4.866375,4.88361 10.814246,10.84792 14.477089,14.51709 21.101112,21.56434 21.490312,22.86338 0.38728,1.2926 -0.0537,2.25633 -1.94926,4.25965 -0.76092,0.80419 -4.826333,5.12021 -9.03425,9.59114 -4.207917,4.47094 -7.750027,8.12898 -7.871354,8.12898 -0.622226,0 -0.02868,0.81295 1.545418,2.11666 0.966351,0.80037 2.184715,1.8282 2.707476,2.28408 5.284811,4.60865 6.682917,5.5945 9.89867,6.97982 5.96264,2.56866 18.11698,7.95576 30.07784,13.31242 6.648664,2.95965 6.762284,2.99876 7.805214,2.6861 0.58208,-0.17452 3.8563,-1.53556 7.27604,-3.02453 z m 29.20319,-59.21346 c -0.89092,-0.14934 -1.50332,-1.00644 -3.54458,-4.96088 -1.05163,-2.0373 -2.65595,-5.13292 -3.56516,-6.87917 -2.12392,-4.0793 -2.14502,-4.15465 -1.39941,-4.99797 l 0.60492,-0.68419 7.01146,-0.14956 c 3.8563,-0.0823 7.46576,-0.20036 8.02102,-0.26243 0.8079,-0.0903 1.13822,0.0158 1.65365,0.53122 1.1888,1.18881 0.96941,1.82902 -3.53833,10.32543 -3.72945,7.02945 -3.92841,7.298 -5.24357,7.07755 z m -74.761454,-0.71734 c -0.788454,-0.78846 -7.557032,-13.7695 -7.791829,-14.94348 -0.130196,-0.65098 -0.03341,-0.97397 0.444182,-1.48235 l 0.610651,-0.65001 h 7.635296 c 10.92167,0 10.94141,0.0139 8.05796,5.67353 -4.36222,8.56218 -5.80237,11.15205 -6.51406,11.71441 -0.66608,0.52633 -1.74115,0.38894 -2.4422,-0.3121 z M 170.13598,112.00905 c 0.19099,-0.0764 0.4192,-0.067 0.50712,0.0209 0.0879,0.0879 -0.0684,0.15045 -0.34727,0.13896 -0.30822,-0.0127 -0.37092,-0.0754 -0.15985,-0.15985 z M 53.515154,161.00542 c 1.657561,-1.74625 5.20551,-5.43719 7.884326,-8.20209 l 4.87058,-5.02708 -0.89276,-0.15582 c -0.491016,-0.0857 -4.107444,-0.18368 -8.036507,-0.21773 -3.929062,-0.0341 -7.560468,-0.0987 -8.069791,-0.14358 -0.509323,-0.0449 -4.971563,-0.16857 -9.916091,-0.2748 l -8.990047,-0.19314 1.17902,0.98504 c 0.648462,0.54177 2.491327,2.15467 4.095255,3.58422 9.810636,8.74399 14.576576,12.91373 14.710085,12.86992 0.0837,-0.0275 1.508368,-1.47869 3.16593,-3.22494 z m 110.965036,1.25677 c 11.0023,-9.94161 13.26974,-11.9799 15.52581,-13.95677 0.83037,-0.72761 1.52031,-1.39835 1.53321,-1.49054 0.0129,-0.0922 -0.60162,-0.13119 -1.3656,-0.0867 -3.08885,0.18004 -14.31594,0.60191 -28.04565,1.05386 -2.29186,0.0754 -4.14746,0.22405 -4.12357,0.33025 0.0457,0.20334 14.84008,15.40211 14.99505,15.40497 0.0494,7.9e-4 0.71577,-0.56389 1.48075,-1.25511 z m -52.39585,-16.16246 1.82687,-2.20335 -3.67896,-3.68806 c -2.02342,-2.02844 -3.79802,-3.65563 -3.94354,-3.61598 -0.14552,0.0396 -1.85762,1.70032 -3.80466,3.6904 l -3.540084,3.61833 1.633964,2.06988 c 0.89867,1.13844 2.53388,3.22367 3.63379,4.63387 l 1.99985,2.56398 2.02294,-2.43286 c 1.11263,-1.33807 2.84505,-3.42437 3.84983,-4.63621 z m 44.34291,-3.86806 c 3.56526,-0.0862 7.19667,-0.21366 8.0698,-0.28333 0.87312,-0.0697 5.09984,-0.24562 9.3927,-0.39099 4.29287,-0.14537 8.77784,-0.33352 9.9666,-0.41811 l 2.1614,-0.1538 -0.22364,-0.70564 c -1.5186,-4.79154 -5.22561,-16.21166 -6.71845,-20.69739 l -1.89837,-5.70426 -12.16095,11.99017 c -6.68853,6.59459 -12.1312,12.1083 -12.09481,12.25269 0.0364,0.14439 -0.0406,0.23277 -0.17101,0.19638 -0.13044,-0.0364 -1.26739,0.91577 -2.52655,2.11588 l -2.2894,2.18201 1.0052,-0.11348 c 0.55285,-0.0624 3.92222,-0.18397 7.48748,-0.27013 z m -93.417941,-0.83876 c -0.352788,-0.38214 -3.913744,-3.92425 -7.913233,-7.87136 -3.999489,-3.9471 -10.032433,-9.91499 -13.406543,-13.26197 l -6.134745,-6.08541 -2.827259,8.73125 c -4.661188,14.39487 -5.95282,18.47002 -5.87788,18.54496 0.0392,0.0392 6.558558,0.15405 14.487459,0.25521 7.928901,0.10116 14.465795,0.22852 14.526429,0.28303 0.06063,0.0545 1.837558,0.0991 3.948724,0.0991 h 3.838482 z m 48.052081,-18.81822 c 4.99934,-8.84026 14.02455,-25.141102 17.24927,-31.154692 3.06561,-5.716882 7.03451,-13.025358 7.86665,-14.485938 l 0.71602,-1.256771 H 106.43068 75.968016 l 0.90632,1.653646 c 0.49848,0.909505 2.00949,3.73724 3.3578,6.283854 1.34831,2.546615 3.19457,5.999427 4.10279,7.672917 0.90822,1.673489 2.63379,4.888177 3.83459,7.14375 3.93018,7.382424 15.518314,28.079144 17.369494,31.022394 0.34323,0.54571 0.72461,0.99219 0.84752,0.99219 0.1229,0 2.2266,-3.54211 4.67486,-7.87135 z m 36.23774,-16.36514 c 10.91406,-0.10492 20.29023,-0.19495 20.83594,-0.20009 0.5457,-0.005 0.99218,-0.12272 0.99218,-0.26133 0,-0.43696 -10.13446,-10.473278 -10.40614,-10.305368 -0.14242,0.08802 -0.18778,0.04489 -0.1008,-0.09585 0.087,-0.140738 -3.62394,-4.036587 -8.24649,-8.657442 -6.49113,-6.488755 -8.46789,-8.322252 -8.68248,-8.053223 -0.15282,0.191584 -0.9905,1.658022 -1.86153,3.258751 -1.32016,2.426136 -7.19955,13.179051 -10.199,18.653122 -0.67038,1.22346 -2.88879,5.19999 -3.29013,5.89759 -0.0661,0.11497 0.1576,0.15179 0.49722,0.0818 0.33961,-0.07 9.54717,-0.21307 20.46123,-0.31798 z m -63.089034,-3.36027 c -0.97781,-1.77496 -2.59016,-4.775012 -3.583,-6.666782 -4.17287,-7.951063 -9.48384,-17.746562 -9.75992,-18.00111 -0.21261,-0.196022 -4.286916,3.741195 -14.31273,13.831139 l -14.015513,14.105163 21.724501,-0.0206 21.724502,-0.0206 z M 176.271,75.264653 V 46.012431 l -3.35628,2.992327 c -1.84595,1.645777 -5.13596,4.599667 -7.31113,6.564198 -4.59674,4.151593 -5.72392,5.157494 -13.92776,12.429181 -3.36172,2.979748 -6.07891,5.565454 -6.03821,5.746017 0.0671,0.29759 30.30799,30.772716 30.53621,30.772716 0.0534,0 0.0972,-13.163497 0.0972,-29.252217 z m -10.71562,9.827408 c -0.97916,-0.436814 -8.7189,-8.265281 -8.97432,-9.077203 -0.11123,-0.353594 -0.0168,-0.943216 0.23663,-1.477256 0.62211,-1.310994 8.6715,-9.179062 9.3906,-9.179062 0.31813,0 0.92645,0.348027 1.35182,0.773398 l 0.77339,0.773395 v 8.732401 8.732398 l -0.69714,0.548371 c -0.80818,0.635717 -1.0077,0.652356 -2.08098,0.173558 z M 52.512147,87.948799 c 7.821745,-7.84434 14.221354,-14.358765 14.221354,-14.476497 0,-0.117734 -0.151788,-0.354383 -0.337309,-0.525891 C 60.679957,67.661968 54.680019,62.21987 52.049127,59.93325 50.88496,58.921426 48.741835,57.016174 47.286627,55.699359 45.116578,53.735685 42.155089,51.115535 37.23246,46.804025 36.703698,46.340906 36.703294,46.362451 36.703294,75.001155 v 28.660605 l 0.793749,-0.72526 c 0.436563,-0.39889 7.19336,-7.143358 15.015104,-14.987701 z m -6.586952,-2.686751 c -1.385266,-0.217964 -1.403348,-0.341032 -1.423922,-9.691539 -0.01638,-7.443467 0.03968,-8.766881 0.39429,-9.308081 0.543677,-0.829757 1.563754,-1.073418 2.346553,-0.560507 0.864917,0.566714 8.050236,7.554748 8.6858,8.447318 0.940027,1.320146 0.385035,2.208598 -4.274741,6.843156 -2.281454,2.269104 -4.375843,4.178144 -4.654198,4.242311 -0.278355,0.06417 -0.761558,0.07647 -1.073782,0.02734 z"
       style="fill:#ffffff;fill-opacity:1;stroke-width:0.264583"
       id="path1" />
  </g>
</svg>
